<?xml version="1.0" encoding="utf-8"?>
<!-- Generator: Adobe Illustrator 21.0.0, SVG Export Plug-In . SVG Version: 6.00 Build 0)  -->
<svg version="1.1" id="ae078c60-54bd-436d-9521-059685d2198b"
	 xmlns="http://www.w3.org/2000/svg" xmlns:xlink="http://www.w3.org/1999/xlink" x="0px" y="0px" viewBox="0 0 1030.5 865.2"
	 style="enable-background:new 0 0 1030.5 865.2;" xml:space="preserve">
<style type="text/css">
	.st0{fill:#1A2C79;}
	.st1{fill:#E80566;}
	.st2{fill:#3F3D56;}
	.st3{fill:#FFFFFF;}
	.st4{fill:#A0616A;}
	.st5{fill:#D0CDE1;}
	.st6{fill:#2F2E41;}
	.st7{opacity:0.15;enable-background:new    ;}
</style>
<title>healthy_options</title>
<path class="st0" d="M274.5,526c-2.8,0-5.6,0-8.3-0.1l0.1-2c4,0.1,8,0.2,12,0.1v2C276.9,526,275.7,526,274.5,526z M290.2,525.5
	l-0.1-2c4-0.2,8-0.6,11.9-1l0.2,2C298.2,525,294.2,525.3,290.2,525.5z M254.1,525.2c-4-0.3-8-0.7-12-1.2l0.2-2
	c3.9,0.5,7.9,0.9,11.9,1.2L254.1,525.2z M314.2,523l-0.3-2c3.9-0.6,7.9-1.3,11.8-2.1l0.4,2C322.1,521.7,318.1,522.4,314.2,523z
	 M230.2,522.3c-3.9-0.7-7.9-1.4-11.8-2.3l0.4-2c3.9,0.8,7.8,1.6,11.7,2.3L230.2,522.3z M337.8,518.3l-0.5-1.9c3.9-1,7.7-2,11.5-3.1
	l0.6,1.9C345.6,516.3,341.7,517.4,337.8,518.3z M206.7,517.2c-3.9-1-7.8-2.2-11.6-3.4l0.6-1.9c3.8,1.2,7.6,2.3,11.5,3.3L206.7,517.2
	z M360.8,511.5l-0.7-1.9c3.7-1.3,7.5-2.7,11.2-4.2l0.7,1.9C368.4,508.8,364.6,510.2,360.8,511.5L360.8,511.5z M183.7,509.9
	c-3.8-1.4-7.5-2.9-11.2-4.4l0.8-1.8c3.7,1.5,7.4,3,11.1,4.4L183.7,509.9z M383.2,502.5l-0.8-1.8c3.6-1.6,7.2-3.4,10.7-5.2l0.9,1.8
	C390.4,499.1,386.8,500.9,383.2,502.5L383.2,502.5z M404.6,491.6l-1-1.7c3.4-2,6.9-4,10.2-6.1l1.1,1.7
	C411.5,487.5,408,489.6,404.6,491.6L404.6,491.6z M424.9,478.8l-1.1-1.6c3.2-2.3,6.5-4.6,9.6-7.1l1.2,1.6
	C431.4,474.1,428.2,476.5,424.9,478.8z M120.1,475.9c-3.2-2.3-6.5-4.8-9.6-7.3l1.2-1.6c3.1,2.5,6.3,4.9,9.5,7.2L120.1,475.9z
	 M444,464.1l-1.3-1.5c3-2.6,6-5.2,9-7.9l1.4,1.5C450.1,458.8,447,461.5,444,464.1z M101.2,460.9c-3-2.6-6-5.4-8.9-8.1l1.4-1.4
	c2.9,2.7,5.8,5.5,8.8,8.1L101.2,460.9z M461.6,447.7l-1.4-1.4c2.8-2.8,5.5-5.8,8.2-8.7l1.5,1.3C467.2,441.9,464.5,444.9,461.6,447.7
	z M83.9,444.2c-2.8-2.9-5.5-5.9-8.1-8.9l1.5-1.3c2.6,3,5.3,6,8,8.8L83.9,444.2z M477.8,429.9l-1.5-1.3c2.5-3.1,5-6.2,7.4-9.4
	l1.6,1.2C482.8,423.6,480.3,426.8,477.8,429.9L477.8,429.9z M68.1,426.1c-2.5-3.1-4.9-6.4-7.2-9.6l1.6-1.2c2.3,3.2,4.7,6.4,7.2,9.5
	L68.1,426.1z M492.2,410.6l-1.7-1.1c2.2-3.3,4.4-6.7,6.5-10l1.7,1C496.6,403.8,494.4,407.3,492.2,410.6L492.2,410.6z M54,406.5
	c-2.2-3.3-4.3-6.8-6.3-10.2l1.7-1c2,3.4,4.1,6.8,6.3,10.1L54,406.5z M504.8,390l-1.8-1c1.9-3.5,3.8-7,5.5-10.6l1.8,0.9
	C508.6,382.9,506.7,386.5,504.8,390z M515.5,368.4l-1.8-0.8c1.6-3.6,3.1-7.4,4.5-11.1l1.9,0.7C518.6,361,517.1,364.7,515.5,368.4z
	 M31.6,364.1c-1.5-3.7-3-7.4-4.4-11.2l1.9-0.7c1.4,3.7,2.8,7.5,4.3,11.1L31.6,364.1z M524.1,345.9l-1.9-0.6
	c1.2-3.8,2.4-7.6,3.5-11.4l1.9,0.5C526.6,338.2,525.4,342.1,524.1,345.9z M23.4,341.5c-1.2-3.8-2.3-7.7-3.3-11.6l1.9-0.5
	c1,3.8,2.1,7.7,3.3,11.5L23.4,341.5z M530.7,322.7l-1.9-0.5c0.9-3.9,1.7-7.8,2.4-11.7l2,0.4C532.4,314.8,531.6,318.8,530.7,322.7
	L530.7,322.7z M17.3,318.2c-0.8-3.9-1.6-7.9-2.2-11.8l2-0.3c0.6,3.9,1.4,7.9,2.2,11.7L17.3,318.2z M535,299l-2-0.3
	c0.5-3.9,1-7.9,1.4-11.9l2,0.2C536,291,535.6,295.1,535,299L535,299z M13.3,294.4c-0.5-4-0.9-8-1.2-12l2-0.1c0.3,4,0.7,8,1.1,11.9
	L13.3,294.4z M537.2,275l-2-0.1c0.2-4,0.3-8,0.3-11.9h2C537.5,267,537.4,271,537.2,275z M11.6,270.4c-0.1-2.5-0.1-5-0.1-7.4
	c0-1.5,0-3.1,0-4.6h2c0,1.5,0,3,0,4.6c0,2.5,0,4.9,0.1,7.4H11.6z M14,246.5l-2-0.1c0.2-4,0.6-8,1-12l2,0.2
	C14.6,238.5,14.2,242.5,14,246.5L14,246.5z M534.2,234.3c-0.4-3.9-0.9-5.9-1.5-9.8l2-0.3c0.6,4,1.1,7,1.5,10.9L534.2,234.3z
	 M16.5,222.7l-2-0.3c0.6-4,1.3-7.9,2.1-11.9l2,0.4C17.9,214.9,17.2,218.8,16.5,222.7z M530.6,212.7c-0.8-3.9-1.6-7.8-2.6-11.7
	l1.9-0.5c0.9,3.9,1.8,7.8,2.6,11.8L530.6,212.7z M21.3,199.3l-1.9-0.5c1-3.9,2-7.8,3.2-11.6l1.9,0.6
	C23.3,191.6,22.3,195.5,21.3,199.3z M525,189.5c-1.1-3.8-2.3-7.6-3.6-11.4l1.9-0.7c1.3,3.8,2.5,7.6,3.7,11.5L525,189.5z M28.2,176.4
	l-1.9-0.7c1.3-3.8,2.8-7.6,4.3-11.3l1.9,0.8C30.9,168.9,29.5,172.7,28.2,176.4L28.2,176.4z M517.2,166.9c-1.5-3.7-3-7.4-4.6-11
	l1.8-0.8c1.6,3.6,3.2,7.4,4.7,11.1L517.2,166.9z M37.1,154.2l-1.8-0.8c1.7-3.6,3.4-7.3,5.3-10.8l1.8,0.9
	C40.6,147,38.8,150.6,37.1,154.2z M507.4,145.2c-1.8-3.5-3.7-7.1-5.6-10.5l1.7-1c2,3.5,3.9,7,5.7,10.6L507.4,145.2z M48.1,132.9
	l-1.7-1c2-3.5,4.1-6.9,6.3-10.3l1.7,1.1C52.2,126.1,50.1,129.5,48.1,132.9L48.1,132.9z M495.7,124.4c-2.1-3.4-4.3-6.7-6.6-10
	l1.6-1.1c2.3,3.3,4.5,6.6,6.6,10L495.7,124.4z M61,112.8l-1.6-1.2c2.3-3.3,4.7-6.5,7.2-9.7l1.6,1.2C65.7,106.3,63.3,109.5,61,112.8z
	 M482.1,104.8c-2.4-3.2-4.9-6.3-7.5-9.3l1.5-1.3c2.6,3.1,5.1,6.2,7.5,9.4L482.1,104.8z M75.7,93.9l-1.5-1.3c2.6-3,5.3-6.1,8-9
	l1.5,1.4C80.9,87.9,78.2,90.9,75.7,93.9z M466.7,86.5c-2.7-2.9-5.5-5.8-8.3-8.6l1.4-1.4c2.8,2.8,5.6,5.7,8.3,8.7L466.7,86.5z
	 M92,76.4L90.6,75c2.9-2.8,5.8-5.6,8.8-8.2l1.3,1.5C97.7,70.9,94.8,73.6,92,76.4z M449.8,69.6c-2.9-2.7-6-5.3-9-7.8l1.3-1.5
	c3.1,2.5,6.1,5.2,9.1,7.9L449.8,69.6z M109.8,60.5l-1.3-1.6c3.1-2.5,6.3-5,9.5-7.4l1.2,1.6C116,55.5,112.8,58,109.8,60.5z M129,46.3
	l-1.1-1.7c3.3-2.2,6.7-4.4,10.1-6.5l1,1.7C135.6,41.9,132.2,44.1,129,46.3z M149.3,33.9l-1-1.8c3.5-1.9,7.1-3.8,10.7-5.5l0.9,1.8
	C156.4,30.1,152.8,32,149.3,33.9z M390.7,29.3c-3.6-1.8-7.2-3.5-10.8-5.1l0.8-1.8c3.7,1.6,7.3,3.3,10.9,5.1L390.7,29.3z M170.8,23.4
	l-0.8-1.8c3.7-1.6,7.4-3.1,11.1-4.5l0.7,1.9C178.1,20.3,174.4,21.8,170.8,23.4z M368.8,19.6c-3.7-1.4-7.5-2.8-11.3-4.1l0.6-1.9
	c3.8,1.3,7.6,2.7,11.4,4.1L368.8,19.6z M193.1,14.9l-0.6-1.9c3.8-1.2,7.7-2.4,11.5-3.5l0.5,1.9C200.7,12.5,196.8,13.7,193.1,14.9z
	 M346.1,12c-3.8-1.1-7.7-2.1-11.6-3l0.5-2c3.9,0.9,7.8,1.9,11.7,3L346.1,12z M216.1,8.6l-0.4-1.9c3.9-0.9,7.9-1.7,11.8-2.4l0.4,2
	C223.9,6.9,220,7.7,216.1,8.6z M322.9,6.5c-3.9-0.7-7.9-1.4-11.8-1.9l0.3-2c4,0.6,8,1.2,11.9,1.9L322.9,6.5z M239.6,4.3l-0.3-2
	c4-0.5,8-1,12-1.3l0.2,2C247.5,3.3,243.5,3.8,239.6,4.3z M299.2,3.2c-3.9-0.4-7.9-0.7-11.9-0.8l0.1-2c4,0.2,8,0.5,12,0.9L299.2,3.2z
	 M263.4,2.2l-0.1-2C267,0.1,270.7,0,274.5,0h0.9v2h-0.9C270.8,2,267.1,2.1,263.4,2.2L263.4,2.2z"/>
<path class="st0" d="M596.2,94.2v648.2c0,16.1-13.1,29.1-29.1,29.1H304c-16.1,0-29.1-13-29.1-29v-0.1V94.2c0-16.1,13-29.1,29.1-29.1
	l0,0h39.4v5.1c0,13.2,10.7,24,24,24h133.8c5.1,0,10.1-1.6,14.2-4.7c0.8-0.6,1.6-1.3,2.4-2c4.7-4.5,7.4-10.8,7.4-17.3v-5.1h42
	C583.2,65.1,596.2,78.1,596.2,94.2L596.2,94.2z"/>
<rect x="313.3" y="298.7" class="st1" width="244.5" height="186"/>
<path class="st1" d="M184.6,267.4c21.8,0.5,39.1,16.2,39.1,16.2s-18,15-39.7,14.5S144.8,282,144.8,282S162.8,266.9,184.6,267.4z"/>
<path class="st1" d="M75.1,193.1c19.7,9.3,42.2,3,42.2,3s-9.3-21.5-29-30.8s-42.2-3-42.2-3S55.5,183.8,75.1,193.1z"/>
<path class="st0" d="M77.1,183.8c21.7-2,40.7,11.7,40.7,11.7s-16.2,16.9-37.9,18.9s-40.7-11.7-40.7-11.7S55.5,185.8,77.1,183.8z"/>
<path class="st0" d="M156.6,187.6c-2.1,21.7,11.6,40.7,11.6,40.7s17-16.1,19.1-37.8s-11.6-40.7-11.6-40.7S158.7,165.9,156.6,187.6z"
	/>
<path class="st2" d="M258.7,320.5c-11.4,18.6-7.5,41.7-7.5,41.7s22.3-7,33.7-25.6s7.5-41.7,7.5-41.7S270.1,301.9,258.7,320.5z"/>
<path class="st0" d="M225.7,522.3l1.7-1.1c-5.8-8.5-9-18.5-9.2-28.8c0-15.1,7.4-29,14.6-42.5c1.3-2.5,2.7-5,3.9-7.5
	c5.3-10.2,9.6-20.8,12.7-31.9c11.1-41.2,0.2-89.9-29.2-130.1c-23.3-31.9-58.1-59.8-106.3-85.4l-0.9,1.8
	c47.9,25.4,82.4,53.1,105.6,84.8c29,39.8,39.8,87.8,28.9,128.4c-3.1,10.9-7.3,21.5-12.6,31.5c-1.3,2.5-2.6,5-3.9,7.5
	c-7.3,13.7-14.8,27.8-14.8,43.4C216.4,503.1,219.7,513.5,225.7,522.3z"/>
<circle class="st0" cx="19" cy="178.7" r="19"/>
<polygon class="st1" points="286.5,487.2 167.2,477.2 167.2,302.3 286.5,296.3 "/>
<polygon class="st1" points="584.6,487.2 703.9,477.2 703.9,302.3 584.6,296.3 "/>
<path class="st3" d="M477,368.6c-7.3-6.3-17.6-7.6-26.1-3.3c-3.6,1.8-7.6,2.9-11.6,3.3c-0.1-8.7,1.5-17.4,4.7-25.5l0.5-1.4h-7
	l-0.2,0.7c-0.8,2.9-1.4,5.8-1.8,8.7c-0.4-1.3-0.9-2.5-1.5-3.7c-4.9-9.7-16.3-13.7-16.8-13.9l-1-0.3l-0.3,1c-0.2,0.5-3.7,12,1.2,21.7
	c3.5,7,10.3,11,14.1,12.8c-4.8-0.3-9.4-1.6-13.7-3.7c-5.5-2.8-12-2.3-16.9,1.4c-13.1,9.9-20.6,24.5-20.6,40
	c0,20.3,13.2,38.9,33.5,47.4c1.8,0.8,3.8,1.2,5.8,1.2c2.8,0,5.5-0.7,7.9-2.2c6.4-3.7,14.4-3.8,20.8,0c4.1,2.4,9.2,2.8,13.7,1
	c20.3-8.5,33.3-27.1,33.3-47.3C495,392,488.6,378.5,477,368.6z M439,343.7h2.6c-2.9,7.8-4.4,16-4.4,24.2h-0.5
	C436.1,359.8,436.9,351.6,439,343.7L439,343.7z M418.9,355c-3.7-7.4-2.1-16.2-1.4-19.2c2.8,1.2,10.9,5.1,14.6,12.5
	s2.1,16.2,1.4,19.2C430.7,366.3,422.7,362.4,418.9,355L418.9,355z M460.9,452c-3.9,1.6-8.3,1.3-11.9-0.8c-7.1-4.1-15.8-4.1-22.8,0
	c-3.6,2.1-8,2.5-11.9,0.9c-19.6-8.2-32.3-26.1-32.3-45.6c0-14.8,7.2-28.8,19.8-38.4c2.4-1.8,5.4-2.8,8.4-2.8c2.2,0,4.4,0.5,6.4,1.6
	c11.1,5.3,24,5.4,35.1,0.2c7.9-3.9,17.3-2.7,24,3.1c11.2,9.6,17.3,22.5,17.3,36.4C493,425.9,480.4,443.8,460.9,452L460.9,452z"/>
<path class="st3" d="M226.5,349.7v-2.3h0.9V340c0-1.1-0.6-2.1-1.6-2.6c-4.1-2.2-8.6-2.2-13.2,0c-1,0.5-1.7,1.5-1.7,2.7v7.2h0.9v2.1
	c-7.1,2-11.9,8.4-11.9,15.8V381l1.8,0.6l-1.8,1.2v4.8l1.8,0.6l-1.8,1.2v4.8l1.8,0.6l-1.8,1.2v36.2c0,5.9,4.8,10.7,10.7,10.7h15.7
	c5.9,0,10.6-4.8,10.6-10.6v-36.2l-1.8-1.2l1.8-0.6v-4.8l-1.8-1.2l1.8-0.6v-4.8l-1.8-1.2l1.8-0.6v-16.6
	C237,357.7,232.8,351.8,226.5,349.7z M213.5,339.2c4.1-1.9,7.8-1.9,11.4,0c0.3,0.2,0.5,0.5,0.5,0.9v3.9H213v-3.8
	C213,339.7,213.2,339.3,213.5,339.2z M235,379.6l-4.3,1.4l4.3,2.9v2.2l-4.3,1.4l4.3,2.9v2.2l-4.3,1.4l4.3,2.9v35.2
	c0,4.8-3.9,8.6-8.6,8.6h-15.7c-4.8,0-8.7-3.9-8.7-8.7v-35.2l4.3-2.9l-4.3-1.4v-2.2l4.3-2.9L202,386v-2.2l4.3-2.9l-4.3-1.4v-14.4
	c0-6.7,4.6-12.5,11.1-14l0.8-0.2v-3.7h10.6v3.8l0.7,0.2c5.8,1.7,9.8,7,9.8,13L235,379.6L235,379.6z"/>
<path class="st3" d="M696.6,377l-5-1l1.2-2.4l-2.3-0.5l0.4-2.4l-2.5-0.4V368l-2-0.6l1.9-2.4h-3.4l0.7-1.8l-2.5-0.4l0.8-3h-2.7V357
	h-1c-3.2,0-4.9,3.7-5.5,5.2c-17.4,3-67.9,38-73.7,42c-2.4-0.8-5.9,1-6.7,1.4l-1.2,0.6l1.7,1.7l-0.5,1.5l3.1,1.2l-0.7,1.7l2,1.6
	l-1.8,1.3l2.6,1.6l-0.5,2.3l3,0.4v2.3l1.7,0.3l-0.9,3h1.9v2.4h1.9l0.8,2.5l0.9-0.2c2-0.4,3.7-3.2,4.4-4.4
	c16.8-3,68.5-39.4,73.5-42.9c5.9,0.7,8-0.9,8.3-1.1l1-0.8l-2.3-1.9L696.6,377z M686.2,380.9l-0.4-0.1l-0.3,0.2
	c-0.6,0.4-57.3,40.6-73.5,42.9l-0.5,0.1l-0.2,0.5c-0.6,1.3-1.5,2.4-2.5,3.4l-0.7-2h-1.3v-2.4h-1.3l0.7-2.5l-2.2-0.4v-2.4l-2.6-0.4
	l0.3-1.6l-1.3-0.8l1.4-1.1L599,412l0.9-2.3l-3.2-1.2l0.3-0.9l-0.6-0.6c1.5-0.6,3.3-1.1,4.1-0.6l0.6,0.3l0.5-0.4
	c0.6-0.4,56.9-39.8,73.8-42.1l0.6-0.1l0.2-0.6c0.3-0.9,1.3-3.3,2.8-4.2v2.5h2l-0.7,2.6l2.3,0.4l-0.9,2.2h2.2l-1.2,1.5l3.5,1v2.5
	l2.2,0.4l-0.4,2.3l1.6,0.3l-1.2,2.4l2.9,0.6l-1.5,1l2.1,1.8C690.2,381.2,688.2,381.2,686.2,380.9z"/>
<circle class="st1" cx="435.5" cy="540.7" r="29"/>
<polygon class="st3" points="453.8,537.9 438.4,537.9 438.4,522.5 432.7,522.5 432.7,537.9 417.3,537.9 417.3,543.6 432.7,543.6 
	432.7,559 438.4,559 438.4,543.6 453.8,543.6 "/>
<polygon class="st3" points="527,541.7 512,534.7 512,538.7 477,538.7 477,544.7 512,544.7 512,548.7 "/>
<polygon class="st3" points="344.1,541.7 359.1,534.7 359.1,538.7 394.1,538.7 394.1,544.7 359.1,544.7 359.1,548.7 "/>
<rect x="69" y="771.7" class="st0" width="733" height="2"/>
<rect x="339.5" y="159.7" class="st3" width="192" height="2"/>
<rect x="340" y="705.7" class="st3" width="192" height="2"/>
<path class="st4" d="M840.5,508.2l-5,19c0,0-18,40,0,42s19-52,19-52L840.5,508.2z"/>
<path class="st5" d="M871.5,371.2l-36,142c0,0,14,4,21,9L871.5,371.2z"/>
<path class="st6" d="M984.5,479.2l10,155c0,0,24,61,23,119c0,0-9,23-2,27s11,7,7,10s-7,10-4,12s4,5,3,5h-30c0,0,6-15-3-19
	s-4-14-4-14l-67-196l-53,180c0,0,9,6,2,9s-10-3-7,3s-1,9-1,10s-30-3-30-3s15-13,8-16s-10-6-8-8s10-21,10-21s4-72,5-75s0-17,0-24
	s-1-35,2-42s6-93,22-103S984.5,479.2,984.5,479.2z"/>
<path class="st6" d="M857.5,775.2c0,0,20,41,6,46s-32,1-36,7s-48,13-49-2s48-43,48-43l6.4-10.3L857.5,775.2z"/>
<path class="st6" d="M1019.5,805.2c0,0,20,41,6,46s-32,1-36,7s-48,13-49-2s48-43,48-43l6.4-10.3L1019.5,805.2z"/>
<circle class="st4" cx="927" cy="257.7" r="33"/>
<polygon class="st4" points="949.5,275.2 945.5,304.2 915.5,327.2 907.5,316.2 907.5,278.2 "/>
<path class="st2" d="M902.5,312.2c0,0,31,3,47-8l32,189c0,0-113,9-118,3v-59l20-96L902.5,312.2z"/>
<path class="st5" d="M946.7,295.2l10.8,9c0,0,44,7,41,19l-12,142l4,48c0,0-34-9-60,0s-5.3-193.4-5.3-193.4S949,298.2,946.7,295.2z"
	/>
<path class="st5" d="M907.5,306.2c0,0-32,23.1-36,38.1s-17,173-17,173s6-3,9,2S912.5,314.1,907.5,306.2z"/>
<path class="st4" d="M995.5,515.2l-7.2,23.4c0,0-1.8,43.6-25.8,37.6s7-57,7-57l7-11L995.5,515.2z"/>
<path class="st6" d="M894,256.3c0,0-3.6-5.4-2.2-11.1c0.8-3.3,1.1-6.7,1-10c0,0,2.9-9.3,5.8-14.6s1.5-7.4,10.6-9.1
	s5.4-13.5,29.3-0.7c1.6,2.3,4.5,3.4,7.3,2.7c4.9-1,6.7,5.9,6.7,5.9s3.3-1.9,4.5,0.8s10.1-1.6,10.1,16.9s-10,35.1-10,35.1
	s0.7-31.2-15.6-34.4s-33.9-12.4-38.2-0.5C900.9,244,897.8,250.4,894,256.3z"/>
<ellipse class="st4" cx="957.3" cy="259.4" rx="3.2" ry="4.3"/>
<path class="st5" d="M990.5,316.2c0,0,16-4,21,23s11,104,11,104l-24,81c0,0-24-13-29-11l18.9-70.3l-15.9-71.7
	C972.5,371.2,986.5,316.2,990.5,316.2z"/>
<polygon class="st7" points="967.2,372.6 988.2,442.6 967.2,513.6 979.2,442.6 "/>
</svg>
