<?xml version="1.0" encoding="utf-8"?>
<!-- Generator: Adobe Illustrator 21.0.0, SVG Export Plug-In . SVG Version: 6.00 Build 0)  -->
<svg version="1.1" id="Layer_1" xmlns="http://www.w3.org/2000/svg" xmlns:xlink="http://www.w3.org/1999/xlink" x="0px" y="0px"
	 viewBox="0 0 349 189" style="enable-background:new 0 0 349 189;" xml:space="preserve">
<style type="text/css">
	.st0{fill:url(#SVGID_1_);}
</style>
<linearGradient id="SVGID_1_" gradientUnits="userSpaceOnUse" x1="40.0589" y1="93.8434" x2="389.0589" y2="93.8434">
	<stop  offset="0" style="stop-color:#7202BB"/>
	<stop  offset="0.6467" style="stop-color:#4940E0"/>
	<stop  offset="1" style="stop-color:#1A2C79"/>
</linearGradient>
<path class="st0" d="M349,0c0,28.5,0,118,0,146.5c-0.2,0.5-0.5,0.9-0.7,1.4c-1.4,3.3-3.6,6.1-6.8,8.1c-5.2,3.4-11,3.5-16.9,2
	c-5.8-1.5-11.4-1.1-16.9,0.5c-8.3,2.4-14.5,7.4-19.7,13.6c-8.7,10.3-18.6,13.5-31.9,10c-5.5-1.4-10.6-3.8-15.9-5.9
	c-9.2-3.6-18.6-5-28.5-3.4c-7.7,1.3-14.9,4-21.8,7.1c-9.4,4.3-19.3,7.1-29.9,7.7c-12,0.6-22.5-2.3-31.5-9.7c-3.4-2.8-7.2-5.1-11-7.3
	c-4.5-2.5-9.5-3.6-14.8-3.4c-6.7,0.3-12,3-16.1,7.6c-2.4,2.6-5.3,4.7-8.8,6c-8,3-15.8,2-23-2c-10-5.5-20.6-6.7-32-5.1
	c-3.1,0.4-6.4,0.6-9.5,0.3c-5.7-0.6-9.9-3.6-13.3-7.6C0,131.4,0,35.2,0,0C116.3,0,232.7,0,349,0z"/>
</svg>
