<?xml version="1.0" encoding="utf-8"?>
<!-- Generator: Adobe Illustrator 21.0.0, SVG Export Plug-In . SVG Version: 6.00 Build 0)  -->
<svg version="1.1" id="Layer_1" xmlns="http://www.w3.org/2000/svg" xmlns:xlink="http://www.w3.org/1999/xlink" x="0px" y="0px"
	 viewBox="0 0 1920 850" style="enable-background:new 0 0 1920 850;" xml:space="preserve">
<style type="text/css">
	.st0{opacity:0.43;fill:#7202BB;enable-background:new    ;}
	.st1{opacity:0.54;fill:#1A2C79;enable-background:new    ;}
	.st2{fill:url(#SVGID_1_);}
</style>
<path class="st0" d="M1917.7,372.6C1738.5,457.2,1248.4,688,1248.4,688C567.6,996.8,5.5,514.9,5.5,514.9V-0.3
	c128,0,1582.5,0,1911.1,0L1917.7,372.6z"/>
<path class="st1" d="M0-0.3v516.8c0,0,469.3,555.5,1066,232.4l642.9-361V-0.3C1708.9-0.3,143.4,5.2,0-0.3z"/>
<linearGradient id="SVGID_1_" gradientUnits="userSpaceOnUse" x1="354.4132" y1="-153.1274" x2="2272.1133" y2="-153.1274" gradientTransform="matrix(1 0 0 1 0 548.5)">
	<stop  offset="0" style="stop-color:#1A2C79"/>
	<stop  offset="0.4734" style="stop-color:#791A70"/>
	<stop  offset="1" style="stop-color:#E80566"/>
</linearGradient>
<path class="st2" d="M0-0.3v515.2c0,0,456.1,481.9,1159.4,172.5l758.3-345.6V-0.3C1917.7-0.3,8.2-0.3,0-0.3z"/>
</svg>
