<?xml version="1.0" encoding="utf-8"?>
<!-- Generator: Adobe Illustrator 21.0.0, SVG Export Plug-In . SVG Version: 6.00 Build 0)  -->
<svg version="1.1" id="ae078c60-54bd-436d-9521-059685d2198b"
	 xmlns="http://www.w3.org/2000/svg" xmlns:xlink="http://www.w3.org/1999/xlink" x="0px" y="0px" viewBox="0 0 1030.5 865.2"
	 style="enable-background:new 0 0 1030.5 865.2;" xml:space="preserve">
<style type="text/css">
	.st0{fill:#F2F2F2;}
	.st1{fill:#3F3D56;}
	.st2{fill:#1A2C79;}
	.st3{fill:#E80566;}
	.st4{fill:#FFFFFF;}
	.st5{fill:#2F2E41;}
	.st6{fill:#FFB9B9;}
	.st7{opacity:0.1;enable-background:new    ;}
	.st8{fill:#9F616A;}
	.st9{fill:#D0CDE1;}
</style>
<path class="st0" d="M929,781.8l-253.8,0.8c-67.3-20.2-122.5-90.5-122.9-195.9c-0.1-15.9,1.1-31.7,3.6-47.4l204.5-45.9L918.1,458
	c11.6,10.4,22.5,21.7,32.4,33.7l-150.8,79.6l-71.2,37.6l80-27.6L974.4,524c10.3,15.8,19.6,32.4,27.6,49.5l-50.1,51.7l56.6-37.1
	c0.2,0.6,0.5,1.1,0.7,1.7C1045.2,675.1,1000.6,781.5,929,781.8z"/>
<polygon class="st1" points="835.7,637.6 837.5,523.8 914.5,382.9 837.8,505.9 838.7,454.7 891.7,352.8 838.9,441.2 838.9,441.2 
	840.4,349.1 897.2,268 840.6,334.6 841.6,165.8 835.7,389.3 836.2,380.1 778.4,291.6 835.2,397.7 829.9,500.6 829.7,497.8 
	763.1,404.8 829.5,507.5 828.8,520.4 828.7,520.5 828.8,521.6 815.1,782.5 833.3,782.5 835.5,647.7 901.8,545.3 "/>
<title>healthy_options</title>
<path class="st0" d="M777.3,434.1c-38.4,11-85.6,25-134.1,39.4c-70.2,20.9-143.1,43-196.2,59.2v-0.2c2-11.3,6.6-22,13.5-31.3
	c39.3-51.1,89.4-86.9,145.2-100.1l0,0c15.7-3.7,31.7-5.7,47.8-5.7C697.8,395.3,739.9,409.2,777.3,434.1z"/>
<ellipse class="st2" cx="520.9" cy="786.9" rx="252.5" ry="18.8"/>
<path class="st0" d="M365.2,474.9c0,136-80.9,183.5-180.6,183.5S3.9,610.9,3.9,474.9s180.6-309.1,180.6-309.1
	S365.2,338.8,365.2,474.9z"/>
<polygon class="st1" points="178,637.6 179.8,523.8 256.8,382.9 180.1,505.9 181,454.7 234,352.8 181.2,441.2 181.2,441.2 
	182.7,349.1 239.5,268 182.9,334.6 183.8,165.8 178,389.3 178.5,380.1 120.7,291.6 177.5,397.7 172.1,500.6 172,497.8 105.4,404.8 
	171.8,507.5 171.1,520.4 171,520.5 171,521.6 157.4,782.5 175.6,782.5 177.8,647.7 244.1,545.3 "/>
<path class="st2" d="M698.8,32.3v717.9c0,17.8-14.5,32.2-32.3,32.2H375.1c-17.8,0-32.2-14.4-32.3-32.1v-0.1V32.3
	c0-17.8,14.4-32.3,32.3-32.3l0,0h43.6v5.6c0,14.7,11.9,26.6,26.6,26.6h148.2c5.7,0,11.2-1.8,15.7-5.2c0.9-0.7,1.8-1.4,2.6-2.2
	c5.2-5,8.2-11.9,8.2-19.2V0h46.5C684.4,0,698.8,14.4,698.8,32.3C698.8,32.2,698.8,32.3,698.8,32.3z"/>
<path class="st3" d="M507.6,281.1c0,20-11.9,27-26.6,27c-0.3,0-0.7,0-1,0c-0.7,0-1.4,0-2-0.1c-13.3-0.9-23.6-8.3-23.6-26.9
	c0-19.3,24.6-43.6,26.5-45.4l0,0c0.1-0.1,0.1-0.1,0.1-0.1S507.6,261,507.6,281.1z"/>
<path class="st1" d="M480,305l9.7-13.6l-9.7,15.1v1.6c-0.7,0-1.4,0-2-0.1l1-20v-0.2l0,0l0.1-1.9l-9.8-15.1l9.8,13.7v0.4l0.8-15.1
	l-8.4-15.6l8.5,13l0.8-31.4v-0.1v0.1l-0.1,24.8l8.3-9.8l-8.4,12l-0.2,13.6l7.8-13l-7.8,15l-0.1,7.5l11.3-18.1l-11.3,20.7L480,305z"
	/>
<polygon class="st3" points="647.1,536.8 394.6,536.8 394.6,561.5 394.6,599 394.6,620.2 415.7,599 647.1,599 "/>
<rect x="450.9" y="551.9" class="st4" width="142" height="11.5"/>
<rect x="450.9" y="569.2" class="st4" width="142" height="11.5"/>
<polygon class="st3" points="394.6,423.3 647.1,423.3 647.1,447.9 647.1,485.5 647.1,506.7 626,485.5 394.6,485.5 "/>
<rect x="437.6" y="439.5" class="st4" width="142" height="11.5"/>
<rect x="437.6" y="456.8" class="st4" width="142" height="11.5"/>
<path class="st0" d="M384.6,162.2v203.3H657V162.2H384.6z M419.7,164.7c2.4,0,4.4,2,4.4,4.4s-2,4.4-4.4,4.4s-4.4-2-4.4-4.4l0,0
	C415.3,166.7,417.3,164.7,419.7,164.7L419.7,164.7L419.7,164.7z M393.4,173.5c-2.4,0-4.4-2-4.4-4.4s2-4.4,4.4-4.4s4.4,2,4.4,4.4
	C397.8,171.6,395.8,173.5,393.4,173.5L393.4,173.5z M402.2,169.1c0-2.4,2-4.4,4.4-4.4s4.4,2,4.4,4.4s-2,4.4-4.4,4.4l0,0
	C404.1,173.5,402.2,171.6,402.2,169.1L402.2,169.1L402.2,169.1z M553.2,308.5H406.6v-109h146.6V308.5z"/>
<rect x="642.4" y="165.8" class="st4" width="8.8" height="1.1"/>
<rect x="642.4" y="169.1" class="st4" width="8.8" height="1.1"/>
<rect x="642.4" y="172.4" class="st4" width="8.8" height="1.1"/>
<rect x="576.2" y="197.7" class="st4" width="66.2" height="3.3"/>
<rect x="576.2" y="209" class="st4" width="66.2" height="3.3"/>
<rect x="576.2" y="220.3" class="st4" width="66.2" height="3.3"/>
<rect x="576.2" y="231.7" class="st4" width="66.2" height="3.3"/>
<rect x="576.2" y="243" class="st4" width="66.2" height="3.3"/>
<rect x="576.2" y="254.3" class="st4" width="66.2" height="3.3"/>
<rect x="576.2" y="265.7" class="st4" width="66.2" height="3.3"/>
<rect x="576.2" y="277" class="st4" width="66.2" height="3.3"/>
<rect x="576.2" y="288.3" class="st4" width="66.2" height="3.3"/>
<rect x="576.2" y="299.7" class="st4" width="66.2" height="3.3"/>
<circle class="st4" cx="415.3" cy="316.1" r="4.4"/>
<circle class="st4" cx="430.3" cy="316.1" r="4.4"/>
<circle class="st4" cx="445.3" cy="316.1" r="4.4"/>
<rect x="576.2" y="337.7" class="st3" width="66.2" height="18.6"/>
<path class="st5" d="M282.4,593.1L280,678l-25.9,99.5c0,0,5.7,17,1.6,21c-4,4-22.6,11.3-22.6,11.3l15.4-211.9L282.4,593.1z"/>
<path class="st5" d="M226.2,798.1c0,0-9.2,20.3,3.7,22.2c12.9,1.8,72.6,6.8,68.9-3.7s-48.6-20.3-48.6-20.3L226.2,798.1z"/>
<path class="st5" d="M191.8,517.8c0,0,9.7,52.6,16.2,61.5s-3.2,73.6-3.2,73.6s-14.6,93-8.1,107.6s4.9,9.7,4,17.8
	c-0.8,8.1-2.4,14.6,0,21.8c2.4,7.3,2.4,6.5,3.2,10.5s0,25.9,0,25.9s34.8,12.1,40.4-5.7c0,0-8.1-11.3-5.7-20.2c2.5-9,3.9-18.2,4-27.5
	v-17L280,627l8.9-50.1c0,0-2.4-51-11.3-55.8C268.7,516.2,191.8,517.8,191.8,517.8z"/>
<path class="st5" d="M206.4,832.5c0,0-12.1,26.7,4.9,29.1s95.4,8.9,90.6-4.9c-4.9-13.7-64-26.7-64-26.7L206.4,832.5z"/>
<circle class="st6" cx="221.8" cy="252.6" r="32.4"/>
<path class="st6" d="M199,266.9l0.6,41.3l39.7,0.1c0,0-10.1-32.3-5.6-39.1C238.2,262.5,199,266.9,199,266.9z"/>
<path class="st1" d="M258.2,331c0,0-28.3-36.4-50.1-21s-29.9,51.8-29.9,51.8l4.9,101.9c0,0,12.1,14.6,4.9,24.3
	c-7.3,9.7-11.3,7.3-5.7,14.6c5.7,7.3,12.1,12.9,9.7,15.4c-2.4,2.4,2.4,4,2.4,4l85.7,2.4c0,0-2.4-3.2,4.9-12.9
	c7.3-9.7-1.6-22.6,0-27.5s3.2,0.8,4-10.5S258.2,331,258.2,331z"/>
<path class="st6" d="M250.1,539.7c0,0,1.6,20.2,13.7,23.5c4.5,1.2,8-1.1,10.4-4.5c4.8-6.6,5-15.4,0.6-22.3l-3-4.8L250.1,539.7z"/>
<path class="st1" d="M175.3,290.2c0,0-0.8,16.2,0,18.6s1.6,4.9,0,7.3s-0.8,10.5,0.8,11.3s-3.2,8.1-1.6,12.9c1.6,4.9,3.2,6.5,4,8.1
	s2.1,4.5,2.1,4.5s23.8-50.6,43.2-38.5s34.8,16.2,34.8,16.2S248,274,175.3,290.2z"/>
<path class="st1" d="M210.4,327.8c0,0-25.9,2.4-24.3,36.4c1.6,34-2.4,87.3-2.4,87.3s44.5,67.9,51.8,72.8c7.3,4.9,8.1,4,7.3,8.1
	s-1.6,7.3,1.6,10.5c1.9,1.9,4.1,3.6,6.5,4.9c0,0,25.9-8.9,23.5-17s-13.7-21-13.7-21s-19.4-31.5-20.2-36.4s-0.8-4-3.2-6.5
	s-8.9-12.1-8.9-17v-15.4l6.8-82.1c0.6-6.8-1.7-13.5-6.3-18.4C224.8,330,219,326.8,210.4,327.8z"/>
<path class="st5" d="M242.6,227.7c4.3,1.2,8.9,0.1,12.2-2.8c3.2-3,4.2-8.2,2-11.9c-1.9-3.2-5.7-4.8-9.3-5.9
	c-7.9-2.5-16.2-3.7-24.5-3.7c-4,0-8.1,0.3-11.5,2.4c-1.7,1-3.1,2.4-4.8,3.5c-3,1.9-6.7,2.6-10.1,3.9c-6.9,2.8-12.3,8.5-14.7,15.6
	c-0.8,2.4-1.2,4.8-1.4,7.3c-0.5,6.8,0.7,13.6,3.5,19.9c4.5,9.8,13.1,18.1,14.3,28.9c4.6-3.9,6-10.4,9.6-15.3
	c2.7-3.6,6.5-6.2,10.8-7.3c1.2-0.2,2.3-0.7,3.3-1.5c0.6-0.9,1-1.9,1-2.9l2.2-16c0.5-3.3,1.1-6.8,3.6-8.9c1.6-1.2,3.4-2,5.3-2.3
	c4.5-1.1,9.2-1.9,13.8-2.3"/>
<path class="st7" d="M187.7,463.1l45.4,58.9C233.1,522,191.3,487.1,187.7,463.1z"/>
<polygon class="st7" points="231.3,397.9 230.8,453.5 257.2,493 235.6,448.7 "/>
<path class="st5" d="M721.9,766.6l-5.3-3.9c0,0-3.5,19.4,0.4,22.3c3.9,2.9,18.4,7.8,18.4,13.6s33,13.6,34,4.9
	c1-8.7-2.9-13.6-2.9-13.6S751,774.4,749,771.5c-1.9-2.9-6.8-8.7-6.8-8.7L721.9,766.6z"/>
<path class="st5" d="M799.6,525c0,0-0.1,0.9-0.4,2.4c-0.2,1.4-0.6,3.3-0.9,5.8c-4.1,24.9-16,98.1-15.2,100.5c1,2.9,7.8,13.6,0,16.5
	c-1.1,0.6-1.9,1.5-2.4,2.6c-1.7,3.1-3,6.3-4.1,9.7c-4.6,13.4-9.6,34.9-12.4,49.8c-1.3,6.5-2.1,11.8-2.4,14.6c-0.1,0.6-0.1,1.3,0,1.9
	c1,3.9-5.8,17.5-8.7,21.3c-2.9,3.9-7.8,7.8-6.8,11.6c1,3.9-24.3,14.6-27.2,7.8s-2.9-10.7-3.9-12.6c-1-1.9-1.9-15.5,2.9-17.5
	s1.9-35.9,6.8-42.7c1.6-2.3,4.1-9.9,6.7-19.1c1-3.6,2-7.5,3.1-11.3c4.1-15.8,7.7-31.7,7.7-31.7l-1-113.5l53.4-6.8l1.4,3l2.7,6
	L799.6,525z"/>
<path class="st5" d="M802.5,711.3c0,0,7.8-7.8,11.6,0c3.9,7.8,7.8,37.8,14.6,44.6s15.5,40.8,5.8,42.7s-20.4-2.9-21.3-8.7
	c-1-5.8-21.3-35.9-21.3-38.8c0-2.9,13.6-13.6,13.6-13.6L802.5,711.3z"/>
<path class="st5" d="M683.1,471.7c0,0,12.6,113.5,15.5,124.2s18.4,51.4,23.3,58.2s35.9,62.1,39.8,65c3.9,2.9,11.6,10.7,11.6,10.7
	s14.6,14.6,16.5,17.5s18.4-5.8,19.4-11.6s-1-15.5-1.9-19.4c-1-3.9,1.9-9.7-1-12.6c-2.9-2.9-17.5-17.5-17.5-24.3S763.7,632.7,754,624
	s-7.8-23.3-7.8-23.3v-59.2l53.4-16.5c0,0-2.9-46.6-9.7-46.6S693.8,462.9,683.1,471.7z"/>
<circle class="st8" cx="761.7" cy="277.6" r="32"/>
<path class="st8" d="M751.1,302.8c0,0-3.9,14.6-8.7,18.4s12.6,20.4,12.6,20.4l33,1.9l5.8-18.4c0,0-10.7-21.3-7.8-34.9
	C788.9,276.6,751.1,302.8,751.1,302.8z"/>
<path class="st1" d="M737.5,319.3c0,0,8.7,1,10.7,3.9s15.5,11.6,26.2,9.7s17.5-4.9,19.4-3.9s5.8,21.3,5.8,21.3l-10.7,31l1.9,85.4
	l2.9,23.3c0,0,5.8-7.8-17.5-2.9s-53.4-3.9-63.1-4.9c-9.7-1-26.2-3.9-27.2-9.7c-1-5.8,2.9-27.2,2.9-27.2l15.5-65l9.7-34.9
	L737.5,319.3z"/>
<path class="st9" d="M746.6,315c0,0-8.2-4.4-11.1-0.5c-2.9,3.9-39.8,9.7-39.8,12.6s-7.8,81.5-5.8,88.3c1.9,6.8-3.9,14.6-3.9,14.6
	l-6.8,29.1c0,0-18.4,55.3-10.7,57.2c7.8,1.9,14.6,0,17.5,0s1.9-36.9,9.7-46.6s18.4-34,20.4-38.8c1.9-4.9,26.2-71.8,25.2-79.6
	C740.4,343.6,746.6,315,746.6,315z"/>
<path class="st9" d="M787,319.3c0,0,7.8,0,8.7,1.9c1,1.9,10.7,14.6,14.6,17.5c3.9,2.9,17.5,15.5,17.5,18.4s-28.1,24.3-28.1,24.3
	s-11.6,57.2-5.8,76.7s14.6,66,10.7,68.9c-3.9,2.9-12.6,3.9-12.6,0s-5.8-45.6-10.7-54.3c-4.9-8.7-19.4-64-13.6-79.6
	S787,319.3,787,319.3z"/>
<path class="st8" d="M658.9,415.4c0,0-1,30.1,9.7,45.6c6.9,10.4,12.8,21.4,17.5,33c0,0,17.5-4.9,20.4-10.7c2.9-5.8,21.3-1,21.3-2.9
	s-22.3-11.6-24.3-13.6s-8.7-1.9-12.6-5.8c-3.9-3.9-4.9-12.6-4.9-12.6l-3.9-25.2L658.9,415.4z"/>
<path class="st5" d="M739.7,257.9c-2.5-0.1-4.9-0.6-7.2-1.6c-4.9-2.6-6.2-10.1-2.5-14.2c1-1,2.2-2,3.4-2.7l7.4-5
	c3.3-2.2,6.6-4.5,10.4-5.5c3.5-0.8,7.1-1,10.6-0.6c6.9,0.2,13.8,1.5,20.4,3.7c6.5,2.4,12.6,6.4,16.5,12.1c6.2,9,6.3,21.2,2.9,31.7
	c-3.4,10.4-10,19.5-16.4,28.4l-3.3-16.3c-0.3-1.5-0.7-3-1.9-3.9c-3-2.1-6.7,2.2-10.4,2.2c-2.4,0-4.4-2-5.3-4.2
	c-0.7-2.3-1.1-4.6-1.2-7c-0.4-5-2.2-11.9-6.9-14.7C751.9,257.6,744.6,258.3,739.7,257.9z"/>
<path class="st7" d="M741.5,525.8c0,0,3.3,94.8,5.2,97.7s0-98,0-98L741.5,525.8z"/>
<path class="st9" d="M703.5,327.1h-7.8c0,0-33,44.6-29.1,47.5s0,10.7,0,10.7l-7.8,14.6c0,0-9.7,8.7-6.8,10.7
	c2.9,1.9,6.8,9.7,6.8,9.7s19.4-2.9,25.2,8.7l12.6-15.9L703.5,327.1z"/>
<path class="st8" d="M791.8,410.5c0,0-21.3,1-45.6-14.6l-24.3-10.7c0,0-21.3-33-23.3-27.2s2.9,17.5,2.9,17.5s-31.8,6.1-30,15.3
	c0.4,1.9,16.5-2.7,16.5-2.7s-2.9,18.4,13.6,19.4s21.3-2.9,21.3-2.9s69.9,58.2,81.5,39.8C816.1,426.1,791.8,410.5,791.8,410.5z"/>
<path class="st9" d="M817,353.3l10.7,3.9v29.1l3.9,5.8c0,0-1,11.6-3.9,14.6c-2.9,2.9-8.7,1.9-6.8,8.7c1.2,4.4,1.5,9,1,13.6
	c0,0-17.5,22.3-18.4,19.4c-1-2.9-14.6-38.8-16.5-38.8s19.4-56.3,19.4-56.3L817,353.3L817,353.3z"/>
<path class="st5" d="M689.4,500.3c0,0-10-9.7-5-10.2s22.5-10.2,25.4-5.3C712.7,489.6,689.4,500.3,689.4,500.3z"/>
<path class="st3" d="M355.3,758.2c0,24.9-14.8,33.6-33,33.6c-0.4,0-0.8,0-1.3,0c-0.8,0-1.7-0.1-2.5-0.1
	c-16.5-1.2-29.3-10.3-29.3-33.4c0-23.9,30.6-54.2,32.9-56.4l0,0c0.1-0.1,0.1-0.1,0.1-0.1S355.3,733.3,355.3,758.2z"/>
<path class="st1" d="M321,788l12.1-16.9L321,789.8v1.9c-0.8,0-1.7-0.1-2.5-0.1l1.3-24.9v-0.2l0,0l0.1-2.4l-12.1-18.8l12.2,17v0.5
	l1-18.8l-10.4-19.4l10.5,16.1l1-39v-0.1v0.1l-0.2,30.8l10.4-12.2l-10.4,14.8l-0.3,16.8l9.7-16.2l-9.7,18.6l-0.2,9.4l14-22.5
	L321.3,767L321,788z"/>
</svg>
