<?xml version="1.0" encoding="utf-8"?>
<!-- Generator: Adobe Illustrator 21.0.0, SVG Export Plug-In . SVG Version: 6.00 Build 0)  -->
<svg version="1.1" id="ae078c60-54bd-436d-9521-059685d2198b"
	 xmlns="http://www.w3.org/2000/svg" xmlns:xlink="http://www.w3.org/1999/xlink" x="0px" y="0px" viewBox="0 0 1030.5 865.2"
	 style="enable-background:new 0 0 1030.5 865.2;" xml:space="preserve">
<style type="text/css">
	.st0{fill:#1A2C79;}
	.st1{fill:#E80566;}
	.st2{fill:#E6E8EC;}
	.st3{opacity:0.3;fill:#FFFFFF;enable-background:new    ;}
	.st4{fill:#FFFFFF;}
	.st5{fill:#FFB8B8;}
	.st6{fill:#2F2E41;}
	.st7{fill:#F2F2F2;}
	.st8{fill:#3F3D56;}
</style>
<title>healthy_options</title>
<path class="st0" d="M826,865.2c-36.2-5.7-71-10.5-104.4-14.5l12.9-25.7c-4.5-1.5-23.8,13.4-23.8,13.4L727,764
	c-22.3,3-32.7,78.9-32.7,78.9L669,817.6l12.5,28.6c-102.2-10.7-190.4-14.1-264.6-13.3l11-22c-4.5-1.5-23.8,13.4-23.8,13.4l16.4-74.4
	c-22.3,3-32.7,78.9-32.7,78.9l-25.3-25.3l13.2,30.3c-50.8,1.5-101.5,5.6-151.8,12.2c11-34.2,49.4-67.1,49.4-67.1
	c-29.5,9.2-44.8,24.1-52.8,38c-1.6-70.3,9.2-140.4,32-206.9c0,0-59.5,133.9-50.6,223.2l1.1,15.9c-51.8,8.1-77.8,16.1-77.8,16.1H826
	L826,865.2z"/>
<path class="st1" d="M962.4,680.9c-16.8,0-30.4-13.6-30.4-30.4c0-16.8,13.6-30.4,30.4-30.4s30.4,13.6,30.4,30.4
	C992.7,667.3,979.1,680.9,962.4,680.9z M962.4,625.2c-14,0-25.3,11.3-25.3,25.3s11.3,25.3,25.3,25.3s25.3-11.3,25.3-25.3
	C987.7,636.6,976.4,625.2,962.4,625.2z"/>
<path class="st0" d="M138.7,770.1c-9.2,0-16.6-7.4-16.6-16.6s7.4-16.6,16.6-16.6s16.6,7.4,16.6,16.6
	C155.3,762.7,147.9,770.1,138.7,770.1z M138.7,739.6c-7.7,0-13.9,6.2-13.9,13.9s6.2,13.9,13.9,13.9s13.9-6.2,13.9-13.9
	C152.5,745.8,146.3,739.6,138.7,739.6z"/>
<path class="st0" d="M974.4,862.9h-22.6v-29.4h22.6V862.9z M953.5,860.6h19.1v-24.9h-19.1V860.6z"/>
<path class="st0" d="M165,851.5L145,830l21.5-20l20,21.5L165,851.5z M148.1,830.1l17,18.2l18.2-17l-17-18.2L148.1,830.1z"/>
<rect y="861.2" class="st0" width="1030.5" height="3"/>
<path class="st0" d="M692.7,199.1v97.8c0,1.9-1.5,3.4-3.4,3.4h-2.4v509.2c0,29.3-23.8,53.1-53.1,53.1H315.6
	c-29.3,0-53.1-23.8-53.1-53.1l0,0V318.1h-1.8c-1.3,0-2.4-1.1-2.4-2.4v-55.6c0-1.3,1.1-2.4,2.4-2.4l0,0h1.8v-21h-1.8
	c-1.4,0-2.5-1.1-2.5-2.5v-54.9c0-1.4,1.1-2.5,2.5-2.5h1.8v-28.6h-1.8c-1.2,0-2.2-1-2.2-2.2l0,0v-30c0-1.2,1-2.2,2.2-2.2h1.8V53.1
	c0-29.3,23.8-53.1,53.1-53.1h318.2c29.3,0,53.1,23.8,53.1,53.1v142.6h2.4C691.2,195.7,692.7,197.2,692.7,199.1z"/>
<path class="st2" d="M438.3,27.2H490c2.1,0,3.8,1.7,3.8,3.8v4.5c0,2.1-1.7,3.8-3.8,3.8h-51.7c-2.1,0-3.8-1.7-3.8-3.8V31
	C434.5,28.9,436.2,27.2,438.3,27.2z"/>
<circle class="st2" cx="509.6" cy="33.3" r="6.8"/>
<path class="st1" d="M661.4,63.6v750.2c0,9.9-4.3,19.3-11.8,25.6c-6.1,5.2-13.9,8.1-21.9,8.1H323.1c-5.4,0-10.8-1.3-15.6-3.8
	c-1.1-0.6-2.2-1.2-3.3-1.9c-9.3-6.3-14.9-16.8-14.9-28V63.6c0-18.6,15.1-33.7,33.7-33.7l0,0h45.6v5.8c0,15.3,12.4,27.8,27.8,27.8
	h154.9c15.3,0,27.8-12.4,27.8-27.8v-5.8h48.6C646.3,29.9,661.4,45,661.4,63.6L661.4,63.6z"/>
<path class="st3" d="M661.4,706.5v107.4c0,9.9-4.3,19.3-11.8,25.6c-6.1,5.2-13.9,8.1-21.9,8.1H323.1c-5.4,0-10.8-1.3-15.6-3.8
	c-1.1-0.6-2.2-1.2-3.3-1.9c-9.3-6.3-14.9-16.8-14.9-28V706.5C395.2,611.4,555.6,611.4,661.4,706.5z"/>
<path class="st3" d="M643.3,843.7c-4.8,2.5-10.2,3.8-15.6,3.8H323.1c-5.4,0-10.8-1.3-15.6-3.8c38.6-92.7,145-136.6,237.7-98.1
	C589.6,764.1,624.9,799.4,643.3,843.7L643.3,843.7z"/>
<path class="st3" d="M577,845.5c-2.9,1.5-6.2,2.3-9.4,2.3H383.3c-3.3,0-6.5-0.8-9.4-2.3c23.3-56.1,87.7-82.7,143.8-59.3
	C544.5,797.4,565.9,818.7,577,845.5z"/>
<path class="st4" d="M552.9,320.4c-30.6,0-64.1-5.8-90.3-25.5c-36.4-27.3-81.3-25.9-112.6-19.8c-20.8,4-40.9,10.8-59.9,20l-1.4-2.6
	c19.3-9.3,39.7-16.1,60.7-20.2c31.9-6.2,77.7-7.6,115,20.4c70,52.5,195.2,5.3,196.5,4.9l1.1,2.8c-23.5,8.4-47.8,14.3-72.5,17.6
	C577.4,319.5,565.1,320.3,552.9,320.4z"/>
<path class="st3" d="M289.4,293.7c0,0,102.7-24.9,174.1,9.2s197.9-0.3,197.9-0.3"/>
<path class="st3" d="M386.4,332.4c-12.4-0.1-24.8-1.3-36.9-3.7c-21-4.1-41.4-10.9-60.7-20.2l1.4-2.6c19,9.2,39.2,15.9,59.9,20
	c31.2,6,76.2,7.5,112.6-19.8c37.3-28,89.6-27.9,126.8-22.9c24.7,3.4,49,9.3,72.5,17.6l-1.1,2.8c-1.3-0.5-126.5-47.6-196.5,4.9
	C440,326.7,411.8,332.4,386.4,332.4z"/>
<path class="st3" d="M386.9,320.4c-51.5,0-97.3-18.5-98-18.8l1.1-2.8c1,0.4,102.8,41.5,172.8,0.1c71.2-42.1,197.8-4.5,199.1-4.1
	l-0.9,2.8c-1.3-0.4-126.6-37.6-196.7,3.9C440.4,315.7,412.9,320.4,386.9,320.4z"/>
<path class="st3" d="M289.4,297.9c0,0,102.7,34.1,174.1,0s197.9-3.2,197.9-3.2"/>
<path class="st5" d="M687.9,389v43.4c0,0,3.5,48.6,22.6,72.9c0,0,31.2,44.3,35.6,34.7l-5.3-31.4l-18.1-17.2l-9.5-53.8l-2.6-48.6
	H687.9z"/>
<polygon class="st5" points="879.7,781.3 879.7,813.4 853.7,822.9 853.7,785.6 "/>
<polygon class="st5" points="826.8,777.8 844.1,816.9 819.8,827.3 814.6,789.1 "/>
<path class="st6" d="M870.2,478.4c0,0,34.7,313.3,21.7,314.1c-13,0.9-38.2,17.4-38.2,6.1c0-11.3-20-157.9-20-157.9l-19.1-75.5v104.1
	l20,118c0,0-19.1,25.2-33,10.4l-29.5-115.4c0,0-39-175.3-37.3-189.2C734.8,493.2,824.2,416.8,870.2,478.4z"/>
<path class="st6" d="M863.2,815.1c0,0,6.9-14.8,22.6-5.2l13,15.6c0,0,33.6,27.8,9.7,33.7c-24.5,6.1-39.3-0.4-39.3-0.4
	s-4.3-2.6-7.8-2.6s-11.3-6.1-11.3-7.8s2.6-32.5,2.6-32.5c2-1,4.4-0.6,6.1,0.9C861.5,819.5,863.2,815.1,863.2,815.1z"/>
<path class="st6" d="M812,809.9c0,0,16.5-13,24.3,1.7c0,0,4.9,1.7,5.5,0s4.9-2.6,4.9,6.9s4.7,33.4,0.4,34.2
	c-4.3,0.9-8.7,3.5-7.8,6.9c0.9,3.5-4.7,4-24.7,3.1s-20.8-8.7-20.8-8.7s0-11.3,5.2-17.4C804.2,830.7,812,809.9,812,809.9z"/>
<path class="st5" d="M779.9,241.5c0,0-4.3,32.1,23.4,43.4c27.8,11.3-61.6,48.6-70.3,26.9s1.7-28.6,1.7-28.6s8.7-8.7,0.9-32.1
	L779.9,241.5z"/>
<circle class="st5" cx="752.2" cy="225.9" r="38.2"/>
<path class="st7" d="M796.4,295.3c0,0-26,13.9-51.2,3.5s-24.3,34.7-24.3,34.7l13,33.8l90.2-8.7l-6.1-52.1L796.4,295.3z"/>
<path class="st8" d="M783.5,265.6c9.4,2,17.3,8.1,21.6,16.7l41.7,13l10.4,14.8L845,416.8c0,0,22.6,21.7,22.6,33.8
	c0,12.1,27.8,53.8,13.9,48.6c-13.9-5.2-39-23.4-39-23.4s-63.3,2.6-83.3,20c-20,17.4-27.8,12.1-27.8,12.1s-20.8-90.2-21.7-104.1
	c-0.9-13.9-25.2-97.2-25.2-97.2l43.4-24.3l11.1-12.5l30.6,49l27.8-33.8C797.3,284.9,783.6,274.1,783.5,265.6z"/>
<path class="st5" d="M870.2,376.9l5.2,27.8c0,0,23.4,86.8,20,116.3c0,0,2.6,66-12.1,58.1c-14.8-7.8-6.9-55.5-6.9-55.5l-20.8-85.9
	l-11.3-50.3L870.2,376.9z"/>
<path class="st8" d="M848.5,304.9l8.7,5.2c0,0,33,68.6,25.2,73.8s-41.7,16.5-41.7,16.5L848.5,304.9z"/>
<polygon class="st8" points="705.3,306.6 684.9,306.2 680.1,314.4 686.2,398.6 717.4,405.5 "/>
<path class="st6" d="M783.2,193.6l6.9-2.5c0,0-14.4-14.4-34.4-13.1l5.6-5.6c0,0-13.8-5-26.3,8.1c-6.6,6.9-14.2,15-18.9,24.2h-7.4
	l3.1,6.2l-10.8,6.2l11.1-1.1c-1,5.3-0.7,10.8,1,15.9l2.5,6.9c0,0,10-20,10-22.5v6.3c0,0,6.9-5.6,6.9-9.4l3.8,4.4l1.9-6.9l23.1,6.9
	l-3.8-5.6l14.4,1.9l-5.6-6.9c0,0,16.3,8.1,16.9,15c0.6,6.9,4.9,15.9,4.9,15.9l5.2-6.1C793.4,231.5,801.4,203,783.2,193.6z"/>
<ellipse class="st5" cx="784.3" cy="226.3" rx="3" ry="7.8"/>
<path class="st0" d="M62,814.1c18.5,34.3,57.8,49,57.8,49s9.3-40.9-9.2-75.2s-57.8-49-57.8-49S43.5,779.8,62,814.1z"/>
<path class="st1" d="M78.9,802.8c33.4,20.1,46.3,60,46.3,60s-41.3,7.3-74.7-12.8S4.2,790.1,4.2,790.1S45.5,782.8,78.9,802.8z"/>
<path class="st3" d="M289.4,293.7c0,0,102.7-53.6,174.1,0s197.9,5.1,197.9,5.1"/>
<circle class="st4" cx="475.8" cy="822.6" r="16.4"/>
</svg>
